<?xml version='1.0' encoding='utf-8'?>
<svg xmlns="http://www.w3.org/2000/svg" viewBox="0 0 2267.72 623.62" preserveAspectRatio="xMidYMid meet" role="img" aria-label="HAIRLAND horizontal logo">
  <g id="logo-symbol-artwork" fill="#382C2A">
    <path d="M478.63,437.29c-15.37-5.28-27.57-18.97-26.39-35.19,1.22-16.71,13.1-31.71,30.75-29.82,4.73.5,9.04,1.8,13.65,3.04l17.1,4.62c3.76,1.02,7.55.99,11.35.23,5.73-1.15,9.55-5.79,9.59-11.74.02-2.8-.5-5.63-1.11-8.34-2.11-9.41,7.26-11.05,7.5-12.67.08-.56-.19-1.44-.75-1.83l-8.39-5.81c6.15-1.6,10.97-4.65,15.3-9.04-2.09-2.87-3.6-5.9-3.38-9.39.53-8.11,14.84-8.33,15.15-14.77.07-1.37-.67-2.74-1.79-3.79-5.46-5.15-10.29-10.59-14.33-16.88-4.81-7.51-6.1-16.73-3.62-25.3,7.3-25.23-1.6-52.86-18.14-72.97.82,14.43-2.6,27.65-8.38,40.5-4.87,10.84-12.01,19.77-19.43,28.93-1.19,1.47-2.2,3.07-3.01,4.78l-5.63,11.81c-.42.88-.9,1.74-1.44,2.56-5.49,8.33-11.15,16.11-18.05,23.42l-18.34,19.41c-6.69,7.08-12.08,14.76-16.48,23.2-16.39,31.39-6.26,69.38,23.45,88.55,8.22,5.31,17.05,9.57,26.84,11.77l22,4.93c16.43,3.68,31.94,10.05,40.74,24.94,12.1,20.46,4.09,47.89-16.11,60.23,6.76-7.15,11.6-15.15,13.16-24.71,2.42-14.81-3.64-28.83-16.03-37.33-7.22-4.96-15.43-7.74-24.18-9.37l-23.14-2.76c-11.56-1.38-22.36-3.31-33.17-8.19-18.84-8.52-32.09-25.73-36.4-45.95-3.24-15.21-1.91-30.29,2.87-45.36-6.08,9.11-10.46,18.86-13.2,29.44-8.05,31.07,5.82,62.7,35.93,74.75,9.36,3.75,18.85,5.78,28.96,6.67l19.13,1.68c15.11,1.33,32.17,6.99,40.62,19.91,11.29,17.25,4.99,41.41-13.75,50.54,8.12-7.32,13.1-16.63,12.57-27.56-.47-9.86-5.75-18.07-13.89-23.52-7.67-4.83-16.34-7.06-25.54-7.63l-21.27.44c-10.12.21-19.91.77-29.9-.9-8.83-1.47-16.95-4.08-24.69-8.46-25.06-14.2-36.62-41.47-30.64-69.51,4.79-22.5,18.32-42.23,33.56-59.13,9.68-10.72,20.15-19.97,30.6-29.93l24.9-23.75c7.41-7.06,13.61-14.92,18.67-24.12-11.62,9.89-23.2,18.38-35.36,27.08l-31.68,22.67c-9.69,6.93-18.14,14.7-26.3,23.4-19.12,20.4-33.41,48.15-32.37,76.41,1.07,29.08,18.3,54.46,44.63,66.65,12.76,5.91,26.34,8.58,40.5,9.13,8.58.33,16.36-.68,25.01-1.49-44.51,11.1-92.47-3.09-114.85-44.82-20.4-38.04-10.74-83.37,16.11-115.98,30.83-37.43,75.67-51.53,111.13-80.86,17.28-14.29,31.4-32.52,34.91-55.06,2.98-19.12-4.15-36.89-17.49-50.79,11.14,8.23,20.2,20.38,23.07,34.07,7.58,6.83,13.25,14.9,17.93,23.98,9.21,17.86,13.27,39.71,6.49,58.9-2.43,6.89-2.05,13.56,1.57,20.06,3.9,7,9.23,12.9,15.11,18.41,1.95,1.83,3.28,3.99,3.29,6.46.06,9.15-14.26,11.05-15.34,15.33-1.15,4.57,3.75,7.15,3.18,10.78-.59,3.78-3.76,6.24-7.29,7.5,1.74,2.49,2.68,4.8,2.09,7.55-1.26,5.87-9.04,4.34-8.18,11.92l1.06,9.26c0,8.07-5.11,14.67-12.95,16.57-4.77,1.15-9.66,1.21-14.49.05l-17.14-4.12-11.23-2.33c-6.19-.65-12.09,1.01-16.55,5.46-4.03,4.03-7.06,9.37-8.67,15.02-2.46,8.66.33,16.96,5.47,24.23,1.86,2.63,4.06,4.99,6.5,7.08l8.01,6.88Z" />
    <path d="M281.72,205.15c0-10.9-4.07-20.34-14.79-23.05-3.52-.89-6.97-.99-10.54-1.23-.15-.96-.19-1.69,0-2.93l75.11-.05c.34,1.19.24,2.07.01,3.08-10.53-.02-20.01,2.41-23.49,12.79-1.3,3.89-1.95,7.86-1.95,12.28l-.06,92.05h72.54c7.39-7.42,14.95-13.71,23.12-20.05l31.27-23.09-.05-50.46c0-5.48-1.2-10.49-3.99-15.08-4.96-7.12-12.99-8.48-21.56-8.45-.14-.99-.18-1.84.04-3l75.3-.06c.41,1.17.32,2.1,0,3.08-10.04.13-18.67,1.93-22.88,11.37-1.66,3.72-2.42,7.8-2.42,12.06l-.05,29.71c19.48-18.74,37.7-47.43,30.82-74.52-3.74-14.73-13.9-26.26-27.32-33.15,3.74.62,6.57,2.74,9.95,4.02,8.91,4.63,16.82,10.37,23.35,18.04,17.11,20.12,15.46,45.15,1.71,66.93-11.78,18.66-33.3,34.94-52.02,46.8l-31.68,20.08c-17.73,11.24-35.03,24.52-47.99,41.04-14.85,18.92-24.81,41.58-25.94,65.89-.64-3.16-.5-6.37-.1-9.7.83-11.43,3.31-22.15,7.46-32.89,5.94-15.12,14.45-28.31,25.33-40.9l-64.88-.11.06,96.88c0,4.4.77,8.25,2.14,12.15,3.45,9.76,12.77,12.22,23.06,12.16.19.81.21,1.62.1,2.89h-74.82c-.4-1.07-.32-1.87-.07-2.89,10.38.05,20.01-2.35,23.26-12.43,1.16-3.61,1.95-7.03,1.95-11.07v-198.18Z" />
    <path d="M515.11,284.36c-4.16-3.02-6.92-5.93-9.11-10.03,6.72,3.62,14.33,6.17,21.47,3.03,1.48,4.05,4.88,6.73,9.42,5.9-2.43,2.01-5.07,1.61-7.8,1.57,1.16,1.43,2.79.99,4.81,2.07-2.87.59-5.43.27-8.14-.8.43,1.14,1.43,1.77,2.86,1.89-1.77.74-3.01.22-4.61-.13-.36-.08-.73-.15-1.09-.25l-2.94-.76c-2.05-.53-3.61-1.57-4.87-2.49Z" />
    <path d="M535.3,259.18c-7.65-8.75-18.17-7.92-28.85-3.04,4.39-3.84,9.64-5.98,15.22-7.18,6.02-1.2,14.17.81,15.09,5.11.36,1.7.04,3.24-1.46,5.11Z" />
  </g>
  <path id="logo-circle" d="M394.05,81.66c-123.58,0-223.76,100.18-223.76,223.76s100.18,223.76,223.76,223.76c37.5,0,72.84-9.24,103.89-25.55-6.01-3.36-12.58-5.25-19.5-6.08-7.49,3.3-15.22,6.17-23.14,8.58-1.88.57-3.77,1.13-5.67,1.65-17.7,4.85-36.34,7.45-55.58,7.45-115.87,0-209.81-93.93-209.81-209.81s93.93-209.81,209.81-209.81,209.81,93.93,209.81,209.81c0,58.84-24.23,112-63.24,150.1,3.79,2.64,7.21,5.8,10.12,9.62,41.39-40.61,67.07-97.16,67.07-159.72,0-123.58-100.18-223.76-223.76-223.76Z" fill="#C88A87" />
  <g id="logo-wordmark" fill="#382C2A">
    <path d="M850,233.82c.95-2.5,2.89-4.22,5.82-5.17,2.93-.95,7.24-1.42,12.93-1.42.52,0,.78-.52.78-1.55s-.26-1.55-.78-1.55c-4.49,0-9.79.13-15.91.39-6.12.26-12.29.39-18.49.39-7.93,0-14.79-.13-20.56-.39-5.78-.26-10.91-.39-15.39-.39-.52,0-.78.52-.78,1.55s.26,1.55.78,1.55c6.21,0,10.86.52,13.97,1.55,3.1,1.03,5.13,2.85,6.08,5.43.95,2.59,1.42,6.38,1.42,11.38v52.51h-83.55v-52.51c0-5,.52-8.79,1.55-11.38,1.03-2.59,3.1-4.4,6.21-5.43,3.1-1.04,7.67-1.55,13.71-1.55.34,0,.52-.52.52-1.55s-.17-1.55-.52-1.55c-4.83,0-10.22.13-16.17.39s-12.89.39-20.82.39c-6.21,0-12.16-.13-17.85-.39-5.69-.26-10.78-.39-15.26-.39-.52,0-.78.52-.78,1.55s.26,1.55.78,1.55c5.69,0,9.96.48,12.8,1.42,2.85.95,4.74,2.68,5.69,5.17.95,2.5,1.42,6.25,1.42,11.25v119.76c0,5-.52,8.79-1.55,11.38-1.03,2.59-2.97,4.31-5.82,5.17-2.85.87-7.2,1.3-13.06,1.3-.35,0-.52.52-.52,1.55s.17,1.55.52,1.55c4.48,0,9.66-.09,15.52-.26,5.86-.17,11.9-.26,18.11-.26,7.93,0,14.83.09,20.69.26,5.86.17,11.29.26,16.3.26.34,0,.52-.52.52-1.55s-.17-1.55-.52-1.55c-6.04,0-10.61-.43-13.71-1.3-3.1-.86-5.17-2.59-6.21-5.17-1.03-2.59-1.55-6.38-1.55-11.38v-59.5h83.55v59.5c0,5-.48,8.79-1.42,11.38-.95,2.59-2.97,4.31-6.08,5.17-3.1.87-7.76,1.3-13.97,1.3-.52,0-.78.52-.78,1.55s.26,1.55.78,1.55c4.48,0,9.61-.09,15.39-.26,5.78-.17,12.63-.26,20.56-.26,6.21,0,12.37.09,18.49.26,6.12.17,11.42.26,15.91.26.52,0,.78-.52.78-1.55s-.26-1.55-.78-1.55c-5.69,0-10-.43-12.93-1.3-2.93-.86-4.87-2.59-5.82-5.17-.95-2.59-1.42-6.38-1.42-11.38v-119.76c0-5,.47-8.75,1.42-11.25Z" />
    <path d="M1075.43,382.69c-2.76,0-5.48-.99-8.15-2.98-2.68-1.98-5.52-5.34-8.54-10.09-3.02-4.74-6.6-11.16-10.73-19.27l-64.67-127.27c-.17-.69-.95-.99-2.33-.9-1.38.09-2.16.39-2.33.9l-56.13,123.39c-4.31,9.66-8.15,17.12-11.51,22.37-3.36,5.26-6.73,8.88-10.09,10.86-3.36,1.98-7.37,2.98-12.03,2.98-.69,0-1.03.52-1.03,1.55s.35,1.55,1.03,1.55c5.86,0,10.82-.17,14.87-.52,4.05-.34,9.44-.52,16.17-.52s11.98.17,16.3.52c4.31.35,9.05.52,14.23.52.86,0,1.29-.52,1.29-1.55s-.43-1.55-1.29-1.55c-9.66,0-16.73-3.02-21.21-9.05-4.49-6.03-4.4-14.23.26-24.57l10.2-22.5h63.43l17.68,34.92c4.31,8.45,5.91,14.1,4.79,16.94-1.12,2.85-5.22,4.27-12.29,4.27-.69,0-1.03.52-1.03,1.55s.34,1.55,1.03,1.55c5.34,0,10.17-.17,14.49-.52,4.31-.34,9.4-.52,15.26-.52,5.17,0,10.56.17,16.17.52,5.6.35,10.99.52,16.17.52.86,0,1.29-.52,1.29-1.55s-.43-1.55-1.29-1.55ZM943.02,319.31l26.68-58.86,29.8,58.86h-56.48Z" />
    <path d="M1148.11,234.21c.86-2.59,2.63-4.4,5.3-5.43,2.67-1.04,6.6-1.55,11.77-1.55.52,0,.78-.52.78-1.55s-.26-1.55-.78-1.55c-4.31,0-9.27.13-14.87.39-5.61.26-11.68.39-18.24.39-6.21,0-12.16-.13-17.85-.39-5.69-.26-10.78-.39-15.26-.39-.35,0-.52.52-.52,1.55s.17,1.55.52,1.55c5.34,0,9.35.48,12.03,1.42,2.67.95,4.48,2.68,5.43,5.17.95,2.5,1.42,6.25,1.42,11.25v119.76c0,5-.48,8.79-1.42,11.38-.95,2.59-2.76,4.31-5.43,5.17-2.68.87-6.69,1.3-12.03,1.3-.35,0-.52.52-.52,1.55s.17,1.55.52,1.55c4.48,0,9.57-.09,15.26-.26,5.69-.17,11.64-.26,17.85-.26,6.55,0,12.59.09,18.11.26,5.52.17,10.52.26,15,.26.52,0,.78-.52.78-1.55s-.26-1.55-.78-1.55c-5.35,0-9.31-.43-11.9-1.3-2.59-.86-4.31-2.59-5.17-5.17-.86-2.59-1.29-6.38-1.29-11.38v-119.25c0-5,.43-8.79,1.29-11.38Z" />
    <path d="M1372.64,382.69c-6.9,0-14.14-2.8-21.73-8.41-7.59-5.6-16.26-14.7-26-27.29-9.18-11.85-20.15-27.38-32.92-46.57,7.97-4.23,14.6-9.95,19.85-17.19,5.69-7.85,8.54-16.86,8.54-27.03s-4.27-18.41-12.8-24.19c-8.54-5.78-20.74-8.66-36.6-8.66-6.04,0-12.46.26-19.27.78-6.81.52-13.06.78-18.75.78-6.21,0-12.07-.13-17.59-.39-5.52-.26-10.52-.39-15-.39-.35,0-.52.52-.52,1.55s.17,1.55.52,1.55c5.34,0,9.31.48,11.9,1.42,2.59.95,4.31,2.68,5.17,5.17.86,2.5,1.29,6.25,1.29,11.25v119.76c0,5-.48,8.79-1.42,11.38-.95,2.59-2.72,4.31-5.3,5.17-2.59.87-6.56,1.3-11.9,1.3-.52,0-.78.52-.78,1.55s.26,1.55.78,1.55c4.48,0,9.53-.09,15.13-.26,5.6-.17,11.51-.26,17.72-.26,6.55,0,12.59.09,18.11.26,5.52.17,10.52.26,15,.26.34,0,.52-.52.52-1.55s-.17-1.55-.52-1.55c-5.35,0-9.31-.43-11.9-1.3-2.59-.86-4.31-2.59-5.17-5.17-.86-2.59-1.29-6.38-1.29-11.38v-57.17c2.07.17,4.35.26,6.85.26h7.37c2.03,0,4.03-.11,6.02-.3,9.32,15.55,17.74,29.02,25.28,40.39,8.1,12.24,15.04,21.6,20.82,28.06,5.78,6.47,9.96,9.7,12.55,9.7h46.04c.34,0,.52-.52.52-1.55s-.17-1.55-.52-1.55ZM1255.46,301.21c-2.76-.17-5.35-.43-7.76-.78v-54.84c0-6.03,1.46-10.35,4.4-12.93,2.93-2.59,7.84-3.88,14.74-3.88,4.66,0,8.79.99,12.42,2.97,3.62,1.98,6.47,5.65,8.54,10.99,2.07,5.35,3.1,13.11,3.1,23.28,0,12.42-2.16,21.43-6.47,27.03-4.31,5.61-11.56,8.41-21.73,8.41-2.07,0-4.49-.09-7.24-.26Z" />
    <path d="M1517.75,338.2c-.87-.17-1.38,0-1.55.52-3.28,12.07-9.83,21.73-19.66,28.97-9.83,7.24-21.47,10.86-34.92,10.86h-8.8c-4.14,0-7.29-.34-9.44-1.04-2.16-.69-3.58-2.11-4.27-4.27-.69-2.15-1.03-5.3-1.03-9.44v-118.47c0-5,.43-8.79,1.29-11.38.86-2.59,2.63-4.35,5.3-5.3,2.67-.95,6.6-1.42,11.77-1.42.52,0,.78-.52.78-1.55s-.26-1.55-.78-1.55c-4.31,0-9.23.13-14.74.39-5.52.26-11.56.39-18.11.39-6.21,0-12.2-.13-17.98-.39-5.78-.26-10.73-.39-14.87-.39-.35,0-.52.52-.52,1.55s.17,1.55.52,1.55c5.34,0,9.31.48,11.9,1.42,2.59.95,4.35,2.68,5.3,5.17.95,2.5,1.42,6.25,1.42,11.25v119.76c0,5-.48,8.79-1.42,11.38-.95,2.59-2.72,4.31-5.3,5.17-2.59.87-6.56,1.3-11.9,1.3-.35,0-.52.52-.52,1.55s.17,1.55.52,1.55h122.09c2.59,0,3.88-1.29,3.88-3.88,0-6.73.26-14.1.78-22.12.52-8.02,1.03-14.87,1.55-20.56,0-.52-.43-.86-1.29-1.03Z" />
    <path d="M1722.36,382.69c-2.76,0-5.48-.99-8.15-2.98-2.68-1.98-5.52-5.34-8.54-10.09-3.02-4.74-6.6-11.16-10.73-19.27l-64.67-127.27c-.17-.69-.95-.99-2.33-.9-1.38.09-2.16.39-2.33.9l-56.13,123.39c-4.31,9.66-8.15,17.12-11.51,22.37-3.36,5.26-6.73,8.88-10.09,10.86-3.36,1.98-7.37,2.98-12.03,2.98-.69,0-1.03.52-1.03,1.55s.35,1.55,1.03,1.55c5.86,0,10.82-.17,14.87-.52,4.05-.34,9.44-.52,16.17-.52s11.98.17,16.3.52c4.31.35,9.05.52,14.23.52.86,0,1.29-.52,1.29-1.55s-.43-1.55-1.29-1.55c-9.66,0-16.73-3.02-21.21-9.05-4.49-6.03-4.4-14.23.26-24.57l10.2-22.5h63.43l17.68,34.92c4.31,8.45,5.91,14.1,4.79,16.94-1.12,2.85-5.22,4.27-12.29,4.27-.69,0-1.03.52-1.03,1.55s.34,1.55,1.03,1.55c5.34,0,10.17-.17,14.49-.52,4.31-.34,9.4-.52,15.26-.52,5.17,0,10.56.17,16.17.52,5.6.35,10.99.52,16.17.52.86,0,1.29-.52,1.29-1.55s-.43-1.55-1.29-1.55ZM1589.95,319.31l26.68-58.86,29.8,58.86h-56.48Z" />
    <path d="M1916.88,224.12c-3.8,0-7.93.13-12.42.39-4.49.26-9.05.39-13.71.39s-9.27-.13-13.32-.39c-4.05-.26-7.98-.39-11.77-.39-.35,0-.52.52-.52,1.55s.17,1.55.52,1.55c6.73,0,11.98,2.72,15.78,8.15,3.79,5.43,5.69,12.72,5.69,21.86v83.5l-89.5-103.16c-4.14-5-6.77-8.49-7.89-10.48-1.12-1.98-2.81-2.97-5.04-2.97-2.76,0-6.64.09-11.64.26-5,.18-10.61.26-16.81.26-3.1,0-6.47-.08-10.09-.26-3.62-.17-7.16-.26-10.61-.26-.35,0-.52.52-.52,1.55s.17,1.55.52,1.55c4.31,0,8.62,1.25,12.93,3.75,3.94,2.29,8.69,6.51,14.23,12.63v109.34c0,9.14-2.2,16.39-6.6,21.73-4.4,5.35-10.39,8.02-17.98,8.02-.52,0-.78.52-.78,1.55s.26,1.55.78,1.55c4.14,0,8.67-.09,13.58-.26,4.92-.17,9.96-.26,15.13-.26,4.83,0,9.27.09,13.32.26,4.05.17,7.97.26,11.77.26.34,0,.52-.52.52-1.55s-.17-1.55-.52-1.55c-6.73,0-11.99-2.67-15.78-8.02-3.8-5.34-5.69-12.58-5.69-21.73v-100.54l121.32,138.05c.34.17.9.22,1.68.13.78-.09,1.16-.39,1.16-.91v-132.44c0-9.14,1.98-16.43,5.95-21.86,3.96-5.43,9.4-8.15,16.3-8.15.34,0,.52-.52.52-1.55s-.17-1.55-.52-1.55Z" />
    <path d="M2086.3,262.15c-7.42-11.9-17.76-21.3-31.04-28.2-13.28-6.89-28.89-10.35-46.82-10.35-5.35,0-11.73.22-19.14.65-7.42.43-14.23.65-20.44.65s-12.33-.13-17.85-.39c-5.52-.26-10.52-.39-15-.39-.52,0-.78.52-.78,1.55s.26,1.55.78,1.55c5.17,0,9.09.48,11.77,1.42,2.67.95,4.44,2.68,5.3,5.17.86,2.5,1.29,6.25,1.29,11.25v119.76c0,5-.48,8.79-1.42,11.38-.95,2.59-2.76,4.31-5.43,5.17-2.68.87-6.69,1.3-12.03,1.3-.35,0-.52.52-.52,1.55s.17,1.55.52,1.55c4.48,0,9.57-.09,15.26-.26,5.69-.17,11.64-.26,17.85-.26,6.89,0,14.49.26,22.76.78,8.28.52,15.17.77,20.69.77,11.55,0,22.46-1.98,32.72-5.95,10.26-3.96,19.36-9.61,27.29-16.94,7.93-7.33,14.14-16.21,18.62-26.64,4.48-10.43,6.73-22.12,6.73-35.05,0-14.83-3.71-28.2-11.12-40.09ZM2058.37,347.77c-4.83,10.86-11.47,19.1-19.92,24.7-8.45,5.6-18.11,8.41-28.97,8.41s-17.98-1.55-21.34-4.66c-3.36-3.1-5.04-7.84-5.04-14.23v-116.4c0-7.07,2.15-11.55,6.47-13.45,4.31-1.89,11.47-2.85,21.47-2.85,11.21,0,20.86,3.49,28.97,10.48,8.1,6.98,14.4,16.43,18.88,28.32,4.48,11.9,6.73,25.18,6.73,39.83,0,15.69-2.42,28.97-7.24,39.84Z" />
  </g>
</svg>